***************************************************************

[IMG]http://www.torrentforce.org/imghost/3/greyshadow_tfbanner.png[/IMG]

***************************************************************

[IMG]http://www.torrentforce.org/imghost/4/greyshadow_thatswhatiam.jpg[/IMG]

***************************************************************

FILM TITLE: That's What I Am (2011)

***************************************************************

Genre: Drama   

Rated PG for thematic material throughout, language and some bullying

Release: 29 April 2011 (USA) 

Director: Michael Pavone

Writer: Michael Pavone

Stars: Ed Harris, Chase Ellison and Molly Parker 

Country: USA

Language: English

Plot:
A coming-of-age story that follows 12-year-old Andy Nichol (Chase Ellison), 
a bright student who, like most kids his age, will do anything to avoid 
conflict for fear of suffering overwhelming ridicule and punishment from 
his junior high school peers.

IMDB Rating: 7.0/10 from 2,671 users   Metascore: 53/100
 
http://www.imdb.com/title/tt1606180/ 

****************************************************************

[IMG]http://www.torrentforce.org/imghost/4/greyshadow_thatswhatiamxvid1.png[/IMG]
[IMG]http://www.torrentforce.org/imghost/4/greyshadow_thatswhatiamxvid2.png[/IMG]
[IMG]http://www.torrentforce.org/imghost/4/greyshadow_thatswhatiamxvid3.png[/IMG]
[IMG]http://www.torrentforce.org/imghost/4/greyshadow_thatswhatiamxvid4.png[/IMG]

****************************************************************

[IMG]http://www.torrentforce.org/imghost/2/greyshadow_mediainfo.png[/IMG]
General
Complete name                    : Thats What I Am 2011 720p BDRip XviD ac3 (avi) [TFRG].avi
Format                           : AVI
Format/Info                      : Audio Video Interleave
Format profile                   : OpenDML
File size                        : 2.36 GiB
Duration                         : 1h 41mn
Overall bit rate                 : 3329 Kbps
Writing library                  : VirtualDub build 32842/release

Video
ID                               : 0
Format                           : MPEG-4 Visual
Format profile                   : Simple@L5
Format settings, BVOP            : No
Format settings, QPel            : No
Format settings, GMC             : No warppoints
Format settings, Matrix          : Default (H.263)
Codec ID                         : XVID
Codec ID/Hint                    : XviD
Duration                         : 1h 41mn
Bit rate                         : 2997 Kbps
Width                            : 1280 pixels
Height                           : 688 pixels
Display aspect ratio             : 1.860
Frame rate                       : 23.976 fps
Color space                      : YUV
Chroma subsampling               : 4:2:0
Bit depth                        : 8 bits
Scan type                        : Progressive
Compression mode                 : Lossy
Bits/(Pixel*Frame)               : 0.142
Stream size                      : 2.12 GiB (90%)
Writing library                  : XviD 64

Audio
ID                               : 1
Format                           : AC-3
Format/Info                      : Audio Coding 3
Mode extension                   : CM (complete main)
Codec ID                         : 2000
Duration                         : 1h 41mn
Bit rate mode                    : Constant
Bit rate                         : 320 Kbps
Channel(s)                       : 6 channels
Channel positions                : Front: L C R, Side: L R, LFE
Sampling rate                    : 48.0 KHz
Bit depth                        : 16 bits
Compression mode                 : Lossy
Stream size                      : 232 MiB (10%)
Alignment                        : Aligned on interleaves
Interleave, duration             : 42 ms (1.00 video frame)
Interleave, preload duration     : 512 ms

****************************************************************

Video Source: Thats What I Am 2011 BluRay 1080p AVC DTS-HD MA5.1-CHDBits (42.7GB) 

Thanks: (chdbits.org)

****************************************************************

I provide a small sample, so please download this to check your 
compatibility first if you are unsure.

****************************************************************

7th October 2011

I am re-introducing my warning to all downloaders, please please
please use a proxy or vpn service, it is the only secure way to
keep your own ip address from being seen during downloading or
uploading/seeding, this WILL stop isp letters, as for advice to 
which one then thats simple, vpntunnel.se server based in Sweden 
is the right one to use, I have cancelled my vpn and transfered 
to a Swedish one already !!! enough said. 

****************************************************************

A big thanks to all the sites out there who care and share and
who make it possible for you to download this torrent for free.

Greetz to Westy, Ripwyn, mustang, noir, Blackjesus, MXMG, The Stig 
and all the other outstanding members of our community of file 
sharers and a special mention to our friends at 1337x.

****************************************************************